<svg xmlns="http://www.w3.org/2000/svg" width="244.628" height="188.992" viewBox="0 0 244.628 188.992">
  <g id="Map" transform="translate(-557.242 -790)">
    <path id="Map-2" d="M93.106,84.4c.236-.1.21-.472-.066-.708s-1.154.131-.879.249-.131.42,0,.564.669,0,.918-.1ZM72.116,66.036c0,.472.394.525.407.8s.407.643.485.485-.289-.538-.328-.735.118-.485-.118-.905-.446-.157-.446.328Zm-95.559,4.631c.21-.354-1.05-.577-.748-.118S-23.653,71.008-23.443,70.667Zm-1.929-.984c.1-.341-1.076-.341-.7,0S-25.464,69.959-25.372,69.683Zm-9.052-45.562c-.262-.328-1.128,1.1-.643.905s.918-.59.643-.905Zm-.643-10.5c.131.407,1.207.656,1.679.512a.5.5,0,0,0,.38-.577.486.486,0,0,0-.144-.249c-.289-.262-.8.367-.853,0s-1.194,0-1.063.367Zm2.926,9.852c.367,0,.538-.328.958-.328s1.22-.262.643-.472S-32.679,23.4-32.141,23.478ZM-21.03,73.593c.249-.2.722-.236.866-.5s-.262-1.063-.918-.984-.3,1.745,0,1.469Zm-.826-1.915c.433-.3.275-.643-.118-.577s-.131.774.131.577ZM-18,16.748c-.525.617-.984.931-1.063,1.233s-.7,0-.879.315.131,1.207.5.931.394,0,.643,0a4.067,4.067,0,0,0,1.574-1.168c.236-.38-.42-.485-.446-.722s.551-.236.853-.394-.276-.289-.276-.59-.394-.276-.931.341ZM98.97,28.03a6.008,6.008,0,0,0-1.929,2.7c0,.538,0,1.168-.525,1.141s-1.063.42-.669.708-1.036,1.089-.367,1.456,1.207-.1,1.85,0a2.178,2.178,0,0,0,1.705-.276c.525-.394.525.354,1.1.276s-.328.472-.289.853.6-.21,1.023-.42.958,0,.748.354,1.168.708,1.5.144-.328-1.456-.538-1.063-.525-.289-.066-.643-.079-.5-.5-.289-.315-.958,0-1.168-.958-.643-.958-.249-.958.131-1.063-.223-.774-.459-.525-.708-.827-.394-.918,0-.433-.289.1-.853.354-1.076.853-1.312,0-.617-.577-.394ZM92.411,31.8c.1-.59-3.385-1.482-3.293-1.115s3.135,1.705,3.227,1.115ZM67.786,8c-.1-.42-3.044.7-2.02,1.312S67.891,8.43,67.786,8ZM8.252,26.692c.328-.21-.577-1.22-.577-1.85s-.289-1.312-1.246-.787S7.832,27.007,8.252,26.692ZM18.433-8.493c.433,0,.1-.538.8-.538s.538-.367,1.168-.315,1.168-.157,1.168-.905.485-1.01,1.128-1.181,0-.958.958-1.181a19.114,19.114,0,0,0,3.857-1.6c.433-.315-.525-.748-1.482-1.312s-1.705-.748-2.453-.262-.157-.538-.735-.262a3.555,3.555,0,0,1-2.4-.7c-.21-.262-3.083.59-3.778.59s.066.748.538,1.115-1.168,1.548-.853,1.81-.315.971-1.063,1.824.525.8,1.5,1.01S17.79-8.493,18.433-8.493ZM70.607,9.165c-.958,0-.735,1.417-.157,1.312C70.8,10.451,71.565,9.113,70.607,9.165ZM67.983,5.059c.1-.577-1.745-1.063-2.335-1.312s-1.482-.485-1.482-1.128-1.312-.157-1.312.8-.577.748-.315,1.653-1.168,1.128-1.01,1.6.853,0,1.482,0-.171.892.643.958a3.044,3.044,0,0,0,1.9-1.233c.262-.433.8-.59,1.548,0s2.335.59,2.44,0-1.705-.748-1.6-1.338Zm7.976-7.517c-.262-.367-.958-.42-1.535-.367s-1.6.958-1.063,1.863,1.81.21,2.44.1S76.327-1.96,75.959-2.458ZM80.551-9.49c-.157-.472-1.535-.525-1.81,0s-1.312-.63-1.312-1.115-1.705,0-1.5-.853-1.968-1.01-2.545-1.01-1.443.472-1.312,1.01-.63.315-.735-.262-1.548.643-1.968.643.262-1.548,0-2.033a12.253,12.253,0,0,1-.853-1.443c-.315-.8-1.915-.472-2.348,0s-1.8.262-2.545,1.01,0,1.5.367,1.771-1.115.7-.63,1.115,1.22.21,1.312.905-1.758-.21-2.02-.8.1-1.115-.262-1.548,0-.958.643-1.705,1.207-.551,1.207-.931-2.978-.433-4.736,1.168a4.172,4.172,0,0,0-1.181,4.08c.1.42,1.653.21,2.624.472s.42.643-.262.538-1.863-.315-1.81.157a2.506,2.506,0,0,0,2.335,1.181c.853-.223.853-.223,1.22.262s1.391.315,2.4.367a25.463,25.463,0,0,1,2.624.485,1.482,1.482,0,0,0,1.233-.538c.157-.262,2.125.433,2.7.38s.223-.59-.157-.748-.21-.853.262-.59,1.312.42,1.443.905.577.21.63.59,1.758.8,1.81,1.22-1.64.643-1.168,1.023,1.181-.459,1.837-.459.63,1.391,1.115,1.181,1.168.262,1.81,1.168,0,1.758,0,2.086S80.289.4,80.945.021s1.312.433,1.863.918-1.968,1.312-1.758.853S79.554.087,78.019.664s-.485,1.5-.328,2.033-1.378,1.063-2.807.59-1.023.341-1.614.341a.956.956,0,0,0-.7,1.5c.525.59,1.705,0,2.624.1s1.063.315,1.168-.21,1.115-.262,1.81-.1.525,1.115,1.377,1.22.171.958.7,1.548,2.23.262,2.873.905,3.424,1.863,3.765,1.391-2.335-2.991-3.135-3.2.8-.472,1.8.328,2.506,1.168,3.254.21-.643-.7-.643-1.391-.472-1.653-1.22-1.653-2.624-1.5-1.968-1.81-.21-.748.315-1.312,1.063.538,1.705.59.748.853,1.758,1.705,1.115.262,1.312-.328,1.312-.1,1.22-.7S92.188,1.11,92.831.874s-.538-.905-1.312-.853a.84.84,0,0,1-.635-.12.84.84,0,0,1-.362-.536.525.525,0,0,1,0-.249c0-.367-1.6-1.312-2.125-1.115s-1.443-.7-2.138-.748-1.705-.59-1.587-1.312,1.378.21,1.64-.367S85-4.689,85-5.122s.367-.262.7-.538-.262-.8-.643-1.01-.472.42-.853.42,0-.59.21-.958-1.22-.8-1.85-.59-.853-.157-.853-.59-1.128,0-1.548.328-.958-.328-.42-.38,1.154-.472,1-.958Zm-31.486-.577c1.312,0,1.391-2.138,1.6-2.939s-1.063-.748-.748-.157,0,1.168-.157.472-1.115,0-1.5-.577,1.181-.59,1.548-1.312-1.22-.59-.853-1.128-2.335.066-1.548.38,0,.748-.682.21-2.807.367-2.073.958,2.335-.315,1.312,1.076-1.4-.341-2.427-.144-.525,1.312.905,1.758,1.312,1.22,2.44,2.02.8-.643,2.125-.59ZM45.13-6.132c0-.8-1.482-1.181-2.125-1.6S42.1-7.955,41.089-8.7s.262-1.115-.472-1.705a2.256,2.256,0,0,1-.485-2.716c.525-.538,1.115-1.312.157-1.705s-2.493.315-2.335.538,1.482.958,1.482,1.312-1.22-.905-1.64-.643-.905-.525-1.312,0,.472,2.4.787,2.939-.315.538-.735.643-.551-1.482-.971-2.073-2.125-1.312-2.23-.853,1.063.433.905,1.01-.8-.367-1.391.118-.472.157-.367-.328-.853-1.01-1.915-.905-.485.853-.8,1.115-1.915-.157-.945-.367.59-.8.21-1.391-1.312.1-3.03.7-2.388,1.233-2.178,1.312.262.315-.367.853,0,1.01.577,1.01.079.472.485.59S26.8-10,27.34-9.634s-3.149.59-3.149,1.233,2.033,1.01,3.516.748,4.093.21,4.093.59-1.666.2-2.978.2-3.621.38-3.5.8.262.485,1.64,1.128,2.821-.328,2.768.577.748,1.128,2.624,1.181,2.7-.853,3.608-.8a1.627,1.627,0,0,0,1.758-.748c.42-.643.8-.262.905,0s1.312.262,1.535.538c.682.669,2.926.472,3.778,0s-.367-1.6-.8-1.076-.787.223-.892,0,.84-.42,1.168-.8,1.64.735,1.692-.066Zm24.834-7.163c0,.8,1.063,1.076,1.8.59s2.873.144,2.873-.485-2.23-1.653-3.031-1.5-2.112-.748-2.493-.052.7.7.748,1.5ZM57.147,97.85c.262-.42-.21-2.02-.735-1.22S56.924,98.217,57.147,97.85ZM87.688,74.34c.21-.538-2.44-.748-1.968,0S87.57,74.642,87.688,74.34Zm-13.119.315c.21-.485-2.716-.892-2.453-.433s2.243.918,2.453.446Zm.171-4.119c-.8,0-3.411-1.824-5.8-2.348s-4.487,1.194-4.251,1.5,1.482-.538,2.073-.958,1.115.21,1.168.472.8.433,2.02.485S71.328,70.746,72.575,71s0,.735.577.958a10.5,10.5,0,0,0,3.936-.1c.223-.262-1.43-1.312-2.23-1.312Zm23.09,63.391-.472.525.472-.512Zm-1.391-12.962a.682.682,0,0,0,.21-.079h0a.407.407,0,0,1-.21.079ZM85.392,94.347Zm-2.781,23.89Zm-.59-16.4h0ZM75.33,97.05v.079l-.118-.144ZM59.062,74.878Zm-.223,4.264ZM48.751,24.331c.433.538,1.063,2.729,1.443,3.411s.367,1.81-.1,1.863,0-1.548-1.023-2.125a3.45,3.45,0,0,1-1.8-2.624.853.853,0,0,1,.34-.568,1.614,1.614,0,0,1,1.142.1ZM30.135,10.871c-.722.131-.157.853-1.023.918s-2.991.157-3.293-.289c-.092-.171,1.141,0,1.233-.407A1.114,1.114,0,0,1,28,10.188c.485,0,.485-.708-.38-1.128s1.312-.7,1.732,0,1.312,1.168,1.837.682,3.254-1.85,3.254-1.207-2.047.971-2.873,1.653S30.8,10.739,30.135,10.871Zm-6.94-8.357c-.708-.131-1.154.236-.8.485s.38.472-.354.643-1.233.748-1.522.682,1.312-1.194.866-1.5-1.4.512-1.417.879-.682.38-1.076.354-.931-.433-.564-.433.131-.485.669-.7-.1-.525.066-.761,1.312.236,1.312-.2-1.115-.787-1.5-.525a2.361,2.361,0,0,1-2.335.38c-.328-.144,2.624-.459,3.175-.931s2.794-1,2.965-.577-1.233.708-.551,1.089a1.837,1.837,0,0,0,2.033-.276c.249-.407,1.312-.341.656.525s-.945,1-1.666.866ZM58.616,33.54c.577-.472,1.05-1.469,1.561-1.469s2.453.157,2.558,1.063,1.168,0,1.312.905.787,1.312.682,1.679a.433.433,0,0,1-.144.2c-.446.3-.328-.485-1.115-.485s-1.6.748-2.23.433-.315-.748-.931-.748.42-1.128-.433-.643-2.125,1.653-2.716,1.115-1.115.157-1.535-.262,1.482-1.6,2.388-1.548a.945.945,0,0,0,.617-.236Zm6.756,2.624a3.936,3.936,0,0,1,1.837.236c.748.262,1.863-.315,2.23.59s1.233,1.587.42,1.653-1.587-.905-1.535-.367-.38.262-.38,1.063-.525,1.928-.84,1.876h0c-.3-.131.171-1.312-.446-1.522s-1.378.905-1.312.21,1.063-1.312.472-2.191-1.64-.905-1.863-.21-.958.367-1.22.905a4.395,4.395,0,0,0-.315,2.558,1.334,1.334,0,0,1-.853,1.758c-.853.446-1.22-.735-.905-2.283.21-1.076.8-2.086.262-2.086s.7-1.312,1.81-1.548,2.493-.157,2.493-.485c0-.066,0-.1.144-.144Zm5.641,5.248A11.2,11.2,0,0,1,68.259,43.1c-1.01.525-2.388.262-2.388-.538s.748-.643.905-.262c.066.144.236,0,.485-.131s.984-.8,1.482-.774c.8,0,1.01.538,1.535.171s.643-.538.748-.262a.118.118,0,0,1,0,.092ZM74.556,39.3v.066c.394.7-1.01,1.115-2.335,1.181a5.916,5.916,0,0,0-.958.092c-.525.066-.708.1-.853-.262s1.6-1.063,2.453-.958,1.312-.472,1.653-.118Zm85.589,128.357c-.774-1.154-2.165-1.05-3.03-1.443s-1.968.144-3.07,1.154a2.873,2.873,0,0,1-3.463-.092,5.734,5.734,0,0,1-1.063-.971,29.721,29.721,0,0,1-2.125-2.624,4,4,0,0,1,.236-3.267c.289-.905-.236-3.122.289-3.7s.236-.918.472-2.27c0-1.312-1.417-.945-2.4-1.915s-3.358-.577-4.6-.1-2.624-.525-4.028.236c-.787.433-1.023,0-.918-.485a2.033,2.033,0,0,1,.682-1.1c.866-.669-.433-3.372.577-3.608a4.434,4.434,0,0,0,1.443-3.227c.144-1.312-.289-1.732.38-2.453s1.391-.774,1.207-1.784-1.1,0-1.876-.472-1.443-.144-3.411.144-2.873,1.1-2.781,2.506-.669.774-.63,1.968-1.535,1.312-1.43,1.981-1.312,0-1.64-.236a30.449,30.449,0,0,0-5.077,1.1c-.577.092-1.64-1.207-2.453-1.154s-1.154-1.207-1.312-2.217-1.548-1.981-2.217-2.9a9.183,9.183,0,0,1-.813-4.237,15.323,15.323,0,0,1,.708-6.061c-.131-1.115-.459-1.312-.708-1.312a1.784,1.784,0,0,1,.945.459c.092-1.719-1.666-2.007-.63-2.807s0-1.679.525-2.073,1.587-.761,1.587-1.312.525-.577,1.312-.472,2.217-1.312,2.112-1.784.144-.63,1.063-.433.774-1.063,1.312-.866,1.063.525,1.115.092.617-.328,1.05.236,1.679.722,1.771,0,.813,0,1.443.682.918.472,1.824.525.918-.2.958-.774,1.01,1.312,1.928,1.312.184-.577-.472-1.1.144-.774-.433-1.207.708-1.01,1.863-.971,1.115.341,1.548-.328.853,0,.853.577,1.876-.341,2.886-.341a2.217,2.217,0,0,1,2.02,1.443c.092.577.761.866,1.482.236s1.312-1.312,2.02-.669,1.312,1.587,2.152,2.4-.38,1.837,0,2.453,0,1.5.905,2.178.1,2.06.866,2.256,1.391,1.391,1.5,1.876,1.535,1.1,1.627.289.866-1.784.958-2.545a10.4,10.4,0,0,0-1.194-4.382c-.63-.866.144-1.063-.63-2.073a7.268,7.268,0,0,1-1.207-4.224,8.934,8.934,0,0,1,2.624-4.526c.813-.722,1.719-.341,1.915-1.1s1.207-1.745,1.771-1.745,1.207.157,1.312-.472a2.742,2.742,0,0,1,2.309-1.587c1.312-.184.525-.866.2-1.443.761-.38,1.522-.341,2.007-.669s1.587-1.312.525-1.312-1.312-.485-.669-.722.092-1.4-.774-1.5-.564-.525,0-1.063-.774-1.391-1.391-1.837.38-.669.866-.761.092-2.322.328-2.847c.394.538-.092,1.4.538,2.125a2.716,2.716,0,0,1,.577,2.624c-.249,1.115.236.826.958-.617s.813-2.7.328-2.847a2.886,2.886,0,0,0,1.64-1.01c.813-.866,1.679-2.361,1.154-2.7s.236-.669,1.194-.617a6.638,6.638,0,0,0,3.162-.866c.472-.945-3.306.433-3.306-.1s2.4-1.063,3.5-1.1.577-1.535,1.05-.918a1.312,1.312,0,0,0,1.81.157h0c.63-.38.144-1.482-.577-1.679s.538-.682.289-1.115a2.427,2.427,0,0,1,1.391-2.361c.918-.2.472-.774,1.312-.774s.918-.918,1.587-1.587,1.627,1.063,2.624.092a12.017,12.017,0,0,1,1.614-1.207,5.143,5.143,0,0,1,2.27-.958,3.922,3.922,0,0,0,2.545-1.824c-.617,1.154.774,1.732,2.112,1.679s-.617.472-1.627.433-1.443.1-2.781,1.443-1.01,1.745-.249,2.414,1.784.38,2.847-.525,1.01-1.837,2.06-1.784a23.471,23.471,0,0,0,5-1.312c1.194-.38.433-.577.433-1.1s2.112-.525,2.873-1.063-.144-.958-.813-.866-.144-.971,0-1.5-1.43.236-1.482.866-1.1.866-1.1,1.312c0,1.115-.144.525-.905.905s-3.752,0-3.844-.669-2.4-1.128-2.466-2.033-1.154-1.207-.289-2.217-.144-1.5-.958-.722c.905-1.312,2.965-1.732,1.915-3.66s-7.675.577-9.354,1.548-3.791,4.041-4.71,4.041,1.587-1.64,1.968-2.27-.092-1.312.433-1.01,2.02-2.06,3.017-2.834,2.112,0,2.257-.669.63-1.063,1.587-1.928,12.437-.722,13.539-.682a6.481,6.481,0,0,0,3.936-2.4c.617-.971,1.443-.971,2.978-.866s2.243-1.312,3.017-1.837c-.866-1.063-1.482-1.5-.813-1.548s1.01-.42,1.312-1.312-.236-.485-1.154-1.692-1.391.38-2.309.289.63-1.246-.144-1.732a3.227,3.227,0,0,0-3.358.813c-1.155.971-1.05,0-2.06.918s-1.01-.472-.525-.866.813,0,1.246-.525.866,0,1.968-.722,2.06-.394,2.4-.918-.525-1.312-1.587-1.01-1.771-1.443-2.44-.971-.525-.708-1.312-.236-1.194-.144-1.535-1.063a7.386,7.386,0,0,0-3.778-2.781,3.188,3.188,0,0,0,1.968-1.548c.289-.472-.472-.918-.866-.958s-.38-.682-.289-1.154-1.312-1.115-1.391-1.6-.866-.813-.813-1.246-.813-1.063-.813-1.64-1.443-1.732-1.482-2.4-.827-1.168-1.115-1.981-.669-.433-.958.722-1.312,1.1-1.01,1.5c.59.787.144.813-.289,1.312s.289,1.194-.42,1.194-.394,1.5-.774.826a.669.669,0,0,0-1.312.2c0,.656-1.535,1.312-2.152,1.312s-.63-1.312-1.154-.958-.433-1.115-1.246-1.063-1.391,0-1.154-.774-1.391-1.063-.866-1.5-.144-1.194-.236-2.453.708-1.312.708-1.824-.577-.485-1.154-.1-.577-.525-1.194-.472-2.493,0-2.624-.918-.708-.433-1.01-1.246-1.05-.2-1.05-.774-.341-.813-.905-.866-.774-.669-1.548-.774a4.657,4.657,0,0,0-2.152.708c-.433.2-1.535-.669-1.968-.328s-.525-.236-1.732-.577-2.781-.433-2.873,0-1.063.577-.918,1.587,1.154.813,1.391,1.482-.472.433-.525,1.063-.669.577-.669,1.01.433.341.669,1.207.708.813.866,1.981-.38.905-.866,1.05,0,.722-.617,1.5-1.246,1.587-.722,2.073,2.506,1.312,3.267,2.624a7.753,7.753,0,0,1,.472,4.775c-.236,1.443-1.863,1.784-3.07,3.03a3.752,3.752,0,0,1-3.031,1.115c-.577,0-.236,1.194.577,2.112s.144,1.207.577,2.165,0,1.732.63,2.624.236,1.207-.485,1.824.289.289.341,1.115-.341.328-.958-.1-1.207.826-1.207,1.312-1.482-.722-1.824-.669.1-.826-.761-1.5-1.535-.813-1.535-1.5-1.5-1.154-1.5-1.915a10.822,10.822,0,0,0-.131-3.319,1.719,1.719,0,0,1,.236-1.732c.289-.525-.341-1.312-1.207-1.312a11.889,11.889,0,0,0-3.162-.275,2.912,2.912,0,0,1-2.256-.433,8.16,8.16,0,0,0-2.978-1.443,3.175,3.175,0,0,1-2.309-1.587c-.144-.433-1.627-.774-1.968-1.207a3.529,3.529,0,0,0-2.348-.577c-.577.1-2.02-1.194-2.873-1.154a23.942,23.942,0,0,0-3.214.971c-.341,0,0-.722.289-1.063s-.722-1.784-.971-2.742-.577-2.033-1.574-1.889a3.936,3.936,0,0,1-2.4-.577,10.01,10.01,0,0,1-.1-4.093c.236-1.154,1.5-2.886,1.5-3.608s.813-1.063,1.535-1.246.144-1.653.866-1.653.761-.38.905-.958c0-1.154.433-1.312,1.535-1.312s2.742-.394,2.506-1.5-3.122-.289-3.122-1.207-3.647-1.01-3.411-1.587,3.647.38,4.893.866a4.762,4.762,0,0,0,2.624.38c1.01,0,.328-1.312.525-1.876s2.112.813,3.214.525,2.138-2.519,3.057-3.122.092-1.207-1.679-1.063a4.959,4.959,0,0,1-3.752-1.312c-.945-.722-.866-1.312.144-1.207s3.411,2.138,4.3,2.191,2.506-1.784,3.267-2.375-.708-.813-1.312-1.246.905-.722,1.679-.722,1.1.682,1.391,1.01,1.719-.236,2.388-.236-.1-1.1-1.207-1.535c.708.092,1.5,0,1.876.722.564,1.128.905.38,1.876,0a4.7,4.7,0,0,0,1.968-1.5c.525-.577.617.092,1.312-.827s-.289-1.771-1.063-2.361,0-1.154-.708-1.548c1.01-.722,1.771-1.01,2.2-1.679s-1.43-.813-.564-1.312.144-.958-.722-.958-1.574-.433-1.627-1.168-1.574-.171-2.519-.643a8.737,8.737,0,0,0-3.4-.289c-.472,0-.525,2.02.184,2.073s1.312.813.669,1.05.1,1.023-.38.971-1.312-.289-1.391.958-.236,1.745-1.05,2.178-.2-1.4-.958-1.312-.866,1.535-.289,1.679.669.63.813,1.312-1.063.2-1.535,1.063-.538-.394-1.207-.971-1.482-1.5-1.443-2.152a.971.971,0,0,1,.918-.971c.525-.092,0-.577,0-1.443s-.722-.643-1.482-1.522-1.627-.945-2.02-.512-.144,1.312-.813,1.548-.394,1.64-.971,1.732-.236-2.375-.708-2.624c1.01-1.01,1.443-1.771.827-1.771a7.1,7.1,0,0,1-2.165-.879c-.433-.184-1.154.826-1.64.446s0-1.312.1-1.889.761.236,1.312-.433-1.312-.669-1.312-1.391-1.43-.918-1.915-1.154.341-1.443.092-1.928-2.112-2.06-2.912-1.915-.958-1.01-.525-.958.774-.236,1.587-1.154.905-1.207.328-1.4c1.154-.669,2.939,0,3.5-.433a39.75,39.75,0,0,0,3.122-4.29c.708-1.01-.525-1.1-2.256-.958s-2.112-.669-3.542-.774a10.01,10.01,0,0,0-4.513.722c-.38.433.708.826.577,1.312s-1.01-.328-1.391-.144.144.826,0,2.506a2.361,2.361,0,0,0,.813,2.414,4.067,4.067,0,0,1,.38,2.506c0,1.063-1.01,1.01-1.312,1.312s.866.63.669,1.312-1.207-.38-1.771-.184-1.063,1.824-.433,2.361.866.433.38,1.063a1.535,1.535,0,0,0,.144,2.453c1.154.905,3.267.813,4.369,1.535s-.472.289,0,1.115-.708,1.1-.669,1.732.472.289,1.063-.774,1,.289.945,1.207-.866.38-1.482,1.312a1.745,1.745,0,0,1-2.112.866c-.918-.2-.394,1.312,0,2.125s-.1,1.1-1.154.813-1.679-.958-1.154-1.784.905-1.784.289-1.679-2.06,0-2.493-.722.289-.394,1.574-.236.2-.866,1.154-.866,1.679.525,2.493-.2-.525-2.125-1.194-1.876-1.732.525-1.732-.144,1.154-.2,1.771-.341-.328-1.01-1.312-.774a2.073,2.073,0,0,1-2.4-.525c-.774-.813-2.165-1.312-2.493.577s-1.719.761-2.243,1.391.63,1.063,1.915,1.1S117.744,7,117.127,7s-.341.905-1.01.577-1.312,0-.866.577-.184.813-.144,1.391-1.01,0-2.02,0a17.553,17.553,0,0,0-4.211.525,4.041,4.041,0,0,1-3.411-.813c-.577-.63-1.312-.538-2.309-.538s-.669-.905-1.915-.958-.958-1.115-1.1-1.732-2.624-.433-3.555.144-2.624.328-3.162,1.391.433.918.958.918c.735,0,.669-.866,2.02-.682s2.3-1.391,2.873-.813S96.963,8.575,95.73,8.772s-.945,1.207.236,2.991-.525.761-.525,1.627-2.256-.289-1.312-.577.472-1.194-.236-1.771-1.207,0-1.1-.63-.774,0-1.443-.472-1.01-.958-1.915-.472a15.861,15.861,0,0,1-3.936.669A12.293,12.293,0,0,1,79.108,9.7c-.682-.669,1.719-1.876,2.44-1.679s.289-.774-.813-1.64-3.647-1.443-3.595-.866-1.391,0-3.175-.289-2.007-.958-3.162-1.01a7.648,7.648,0,0,1-4.224-1.443C65.267,1.714,62.066,2,61.686,2.96s-1.443.918-2.493.918.472-1.181.092-1.391S59.285.9,58.577.8s-1.482,3.188-2.926,3.083S53.592.415,52.385-.451s-2.3-.918-1.312.38-.866.38-.774,1.312-1.627,1.889-1.574,1.4-.971-1.01-2.112.341-1.942,1.089-2.047.643-3.5,1.246-3.358,1.824-.525,1.01-1.443.971S39.58,5.6,40.3,5.216A20.991,20.991,0,0,1,44.474,2.8c1.154-.184,3.358-1.1,3.411-1.627s-1.1-.1-1.876-.236S43.9,1.661,42.6,2.251s-2.781.38-2.4,1.154S39,3.314,38.662,3.839c0-.63-1.627-1.154-1.627-.813s-.289.761-1.443.761-2.309.774-1.522,1.351,1.246.866.866,1.246-1.587-1.01-3.267-.866a8.134,8.134,0,0,1-5.038-2.361c0-.394-2.375-.157-4-.328a3.752,3.752,0,0,1-1-.21,11.23,11.23,0,0,0-4.552-1.312A9.183,9.183,0,0,1,13,1.451,5.392,5.392,0,0,0,9.59.979c-1.574.236-2.624-.866-4.6-1.312A12.489,12.489,0,0,0-.538.047c-.669.236-.525-.722-1.391-.617S-2.112-.963-2.6-1.684s-2.873,0-3.739,0-1.1-.433-1.063-.866-.761-.289-1.1.289a1.181,1.181,0,0,1-1.64.315h0c-.38-.38.813-.525.866-.958s-1.312-.682-1.732-.826-1.312.472-2.256,1.4a4.342,4.342,0,0,1-3.4.708c-.918-.092-2.073.092-2.02.63s1.154.472.472,1.154-.905-.918-1.587-.2-2.716.617-3.188.512-2.06,1.64-2.545,2.125.394.918-.905,2.309S-31.184,6.03-31.905,6.03s-.2.813-.577,1.312.433,1.023,2.4,1.548,3.319,3.135,3.555,3.752,2.624,0,3.647.1-.1,1.482.708,1.876,2.06-.2,2.3.472-1.627,0-2.624.722-1.443,1.063-1.824.525-1.968-.2-2.781-.092,0-1.01,0-1.5-1.1-.813-2.624.092-1.01.577-1.194,1.312-.866-.433-1.876.2-2.663,1.128-3,1.705,2.152,1.05,3.122,1.312-1.154.813-.394,1.063.433.958,1.64,1.587,3.936,0,4.6,0,1.391.866,1.968.236,2.729-2.375,3.831-1.312-1.194.866-.617,1.5,1.312,2.112.236,2.886a3.057,3.057,0,0,1-2.624.2c-.577,0-.236,1.063-1.154,1.784s-1.587-.774-2.742-.774-.905,1.5-.853,2.217-1.732-.144-2.165,1.587-2.256.236-1.05,1.929,1,.617,1.955,1.312-1.05,1.876-.092,2.073,2.02,1.915,2.689,2.545,1.522-.459,2.48-.459.525-1.443,1.1-.918,1.391,2.073.866,2.453-.092,1.587-.2,2.165,2.217.394,2.361-.289,1.955-.866,2.965.236,1.312,1.312,1.312.433.853-1.824.905-1.1.866.918,2.348.236c-1.01,2.335,0,4.29-.708,4.474S-15.4,47.6-16.635,47.748s-3.358,2.506-3.647,2.886-2.978-.774-3.358.341-2.007,1.928-1.587,2.361,2.493-.813,2.624-1.391a2.624,2.624,0,0,0,2.545-.63c.433-.38,1.154-.236,1.574-.2s.63-.525,1.929-.761,1.01-.63,1.312-1.312a11.427,11.427,0,0,1,3.936-2.27c.577-.144.249-1.1.866-1.154a6.035,6.035,0,0,0,2.4-1.5c.813-.669,1.01-.38,1.64-.63s.144-1.482.761-1.587a1.207,1.207,0,0,0,1.1-1.1c0-.525-1.574-.525-1.719-.866s1.246-1.587,1.771-1.548a1.522,1.522,0,0,0,1.443-1.312c0-.761.813-.905,1.443-1.587s.472-1.312,1.1-1.312S.7,33.278,1.365,32.871s0,.472,1.312.525a5.248,5.248,0,0,0-2.2,1.312c-.866.813-.2,1.063-.866,1.968s-.708,1.5.144,1.587,0,.722-.774.971-.236.708.866.708,2.742-1.587,4.264-2.361,2.624,0,3.122-.144-.472-.866,0-1.115-.617-.38-.945-1.312.525-.328.708-1.063.722-.433,1.207-.092,1.154-.328,1.574.577.918-.236,1.679.394-.144.525-.958.708c.866.236,1.391-.092,1.968.433s.813.289,1.312-.2c.472.813,1.482.971,2.926,1.207a23.391,23.391,0,0,0,4.7-.144c.682,0,.433,1.01,1.928,1.312s1.863-1.5,2.624-.866,0,.866-.433,1.312.472.525,1.063.761a8.54,8.54,0,0,1,2.545,1.312,7.517,7.517,0,0,0,2.545,2.073c1.535.761,0-1.929,1.312-1.063s.761,0,1.719.918.63-.394.2-1.837.433-.472.866.2a3.844,3.844,0,0,1,.144,2.834c-.289.866-1.732.144-1.587-.328s-1.443-.289-1.482.38A2.794,2.794,0,0,0,34.6,45.964c.774.144.2,1.312.669,1.5s.63,1.443,1.01,1.312.236-1.692-.184-2.375-.249-1.64.328-1.443,0,1.207.289,1.548.63-.341,1.312-.722-.3-1.482-.013-2.125,1.01.472,1.312,1.482-.708.971-.708,1.5-.918.289-1.207.577-.144,2.217.236,2.27.63-1.587.866-.774,1.154-1.063,1.391-.289,1.391,1.64,1.837,1.443-.2-1.01-.866-1.063-.577-1.154,0-1.194,1.732,1.587,1.679,2.165-.577.525-1.1,1.1-1.246-.958-1.863-.905,0,1,.289,1.679-.774,1.587,0,2.112.577-.328.708-.708.774.1,1.207.433.472-.774.472-1.207.708-.184,1.1.394.433-.63,1.01-.525.184,1.01.184,1.535,1.01-.433.918.144.42.945.905,1.312-1.05.472-.577.918-.092,1.1.394,1.64a1.391,1.391,0,0,0,1.863-.1c.525-.433.918.538.472,1.312a.584.584,0,0,0,.918.722h0c.433-.538,1.312.866,1.771,1.1-.577.958-.472,2.217,0,2.256s.472.722.472,1.168,1.679,1.05,2.3.866,1.207.38,1.5.905,1.43.918,1.863.577.708.63.826,1.312,1.05.289,1.627.236.905.774,1.312.63c.84-.315,1.1,1.168,1.653,2.033.931,1.05.354,1.627.59,2.545s0,2.217-.669,2.217a.59.59,0,0,1-.617-.551.577.577,0,0,1,.328-.564c.525-.289.236-1.312-.289-1.312-.407-1.1-.328-1.43-.2-1.692.341-.63-.708-.2-1.312-.866s-2.256-.525-2.493-1.154-1.732-2.939-2.519-2.9a3.936,3.936,0,0,1-2.834-.63c-.971-.722-1.587-.761-2.256-.328s.708.525.669,1.01.433.761,1.01.669.905,1.1,1.482,1.154.761.971,1.443.971.813.761,1.154,1.194,1.1,0,1.1.472.761.748.958,1.233a6.455,6.455,0,0,0,1.154,3.057c.761,1.01.236,1.64.945,2.02-.669.63-.2,1.312-.433,2.7s-.2,4.434-.328,5.353-1.207,2.4-.577,3.358a4.513,4.513,0,0,1,.708,3.516,3.254,3.254,0,0,0,.236,2.847c.525.918.092,2.506.669,2.834a5.536,5.536,0,0,1,1.64,1.889c.525.866,1,.328,1.1,1.194s.092,1.01.866,1.312.289,1.207.289,1.692,1,1.312,2.256,2.453.184,2.02,1.1,2.02a5.431,5.431,0,0,1,2.624,1.1c.918.577,1.207.236,1.837.394a4.277,4.277,0,0,1,2.007,2.4A10.087,10.087,0,0,0,74.9,113.7a9.407,9.407,0,0,0,1.154,1.85,10.823,10.823,0,0,1,1.824,4.237c.092.761,1.482,1.391,2.624,2.165a2.873,2.873,0,0,1,1.05,2.886c-.144.433-1.627-.289-1.732.144s1.929,2.112,2.624,2.02,1.154.38,2.348,1.443,1.1,2.322.63,2.7.945,1.207,2.493,2.217a5.5,5.5,0,0,1,2.493,2.768c.144.525.813,0,1.05-.682s-.472-.905-.472-1.732-1.312-.669-1.824-.774,0-1.312-.525-1.915a8.409,8.409,0,0,1-1.391-3.083c-.289-1.063-1.771-2.125-2.4-3.28a7.688,7.688,0,0,0-1.732-2.361c-.433-.289.63-.722.236-1.154s-.945-.394-1.679-.708a1.863,1.863,0,0,1-1.194-1.692,14.339,14.339,0,0,0-.708-3.227c1,0,1.194.341,1.535.144a.866.866,0,0,1,1.128.446h0c.236.538,1.063,0,1.443.289s-.866.538.394,2.755.38.958.38,2.453.761.813,1.01.577.905.472,1.535,1.312,1.824.813,1.824,1.312a1.417,1.417,0,0,0,1.05,1.443c.813.144.971,1.063,1.5,1.154s.617.669.328,1.312,0,1.154,1.312,1.679.708.63,1.771,1.64a64.713,64.713,0,0,1,4.657,5.248,8.357,8.357,0,0,1,1.05,2.375c.236.669-.472,1.01-.092,1.587s-.708.341-.669.774.669,2.624,1.732,2.624,2.243,1.4,3.109,2.125,2.165.577,3.463,1.063A36.119,36.119,0,0,0,112.483,150a19.679,19.679,0,0,1,4.893,2.112,4.723,4.723,0,0,0,4.369-.236,4.749,4.749,0,0,1,3.936.577A12.49,12.49,0,0,1,128,154.275c.761.722,1.548,1.391,2.375,2.033s2.4,0,3.017.525a11.807,11.807,0,0,0,4.316,1.443c.879-.446,1.023-.551,1.312-.289.157,1.115.144,1.417.525,1.64.774.433,1.824,2.112,2.624,2.545a1.482,1.482,0,0,1,.735.879c-.59,1.141-.643,2.3.407,2.742s.722-.236,1.312-.236.472.813.958.813,1.587.577,1.535,1.312.38,1.1,1.312,1.1a5.116,5.116,0,0,1,3.319,1.312c.708.866,1.154.289,1.574,1.063s1.443,0,1.679-.433-.525-.682-.617-1.207.945-.341,1.154-1.063,1.719-1.063,2.4-.774,1.246.774.617,1.5.472,1.509,1.312,2.256c.275.262.525.5.7.682C161.233,172.838,160.656,168.456,160.144,167.656ZM79.987,74.76h.092c.433.21.538-.21,1.5-.538s2.493.262,2.493-.472-2.545-1.548-3.188-1.312a1.115,1.115,0,0,1-.656,0c-.669-.171-1.509-.6-1.9-.328s.8,1.168.8,1.653-2.138-.092-2.335.42c-.1.262.735.643,1.535.38A1.955,1.955,0,0,1,79.987,74.76Z" transform="translate(593.075 806.795)" fill="#f0f0f7" fill-rule="evenodd"/>
    <g id="location_pins" data-name="location pins" transform="translate(61 96)">
      <g id="Orlando" transform="translate(678 824)">
        <path id="Path_249" data-name="Path 249" d="M8,0A6.957,6.957,0,0,0,1,7a6.722,6.722,0,0,0,2.1,5c.1.1,4.1,3.7,4.2,3.8a1.049,1.049,0,0,0,1.3,0c.1-.1,4.2-3.7,4.2-3.8a6.722,6.722,0,0,0,2.1-5A6.812,6.812,0,0,0,8,0ZM8,9a2,2,0,1,1,2-2A2.006,2.006,0,0,1,8,9Z" fill="#a3a1fb"/>
      </g>
      <g id="Houston" transform="translate(628 814)">
        <path id="Path_249-2" data-name="Path 249" d="M8,0A6.957,6.957,0,0,0,1,7a6.722,6.722,0,0,0,2.1,5c.1.1,4.1,3.7,4.2,3.8a1.049,1.049,0,0,0,1.3,0c.1-.1,4.2-3.7,4.2-3.8a6.722,6.722,0,0,0,2.1-5A6.812,6.812,0,0,0,8,0ZM8,9a2,2,0,1,1,2-2A2.006,2.006,0,0,1,8,9Z" transform="translate(10 10)" fill="#5ee2a0"/>
      </g>
      <g id="Dallas" transform="translate(631 813)">
        <path id="Path_249-3" data-name="Path 249" d="M8,0A6.957,6.957,0,0,0,1,7a6.722,6.722,0,0,0,2.1,5c.1.1,4.1,3.7,4.2,3.8a1.049,1.049,0,0,0,1.3,0c.1-.1,4.2-3.7,4.2-3.8a6.722,6.722,0,0,0,2.1-5A6.812,6.812,0,0,0,8,0ZM8,9a2,2,0,1,1,2-2A2.006,2.006,0,0,1,8,9Z" fill="#ffa177"/>
      </g>
      <g id="LA" transform="translate(590 797)">
        <path id="Path_249-4" data-name="Path 249" d="M8,0A6.957,6.957,0,0,0,1,7a6.722,6.722,0,0,0,2.1,5c.1.1,4.1,3.7,4.2,3.8a1.049,1.049,0,0,0,1.3,0c.1-.1,4.2-3.7,4.2-3.8a6.722,6.722,0,0,0,2.1-5A6.812,6.812,0,0,0,8,0ZM8,9a2,2,0,1,1,2-2A2.006,2.006,0,0,1,8,9Z" fill="#54d8ff"/>
      </g>
      <g id="NY" transform="translate(687 789)">
        <path id="Path_249-5" data-name="Path 249" d="M8,0A6.957,6.957,0,0,0,1,7a6.722,6.722,0,0,0,2.1,5c.1.1,4.1,3.7,4.2,3.8a1.049,1.049,0,0,0,1.3,0c.1-.1,4.2-3.7,4.2-3.8a6.722,6.722,0,0,0,2.1-5A6.812,6.812,0,0,0,8,0ZM8,9a2,2,0,1,1,2-2A2.006,2.006,0,0,1,8,9Z" fill="#ff8474"/>
      </g>
      <g id="Mass" transform="translate(698 781)">
        <path id="Path_249-6" data-name="Path 249" d="M8,0A6.957,6.957,0,0,0,1,7a6.722,6.722,0,0,0,2.1,5c.1.1,4.1,3.7,4.2,3.8a1.049,1.049,0,0,0,1.3,0c.1-.1,4.2-3.7,4.2-3.8a6.722,6.722,0,0,0,2.1-5A6.812,6.812,0,0,0,8,0ZM8,9a2,2,0,1,1,2-2A2.006,2.006,0,0,1,8,9Z" fill="#ff7cc3"/>
      </g>
    </g>
  </g>
</svg>
